<?xml version="1.0" standalone="no"?>
<!DOCTYPE svg PUBLIC "-//W3C//DTD SVG 1.1//EN" "http://www.w3.org/Graphics/SVG/1.1/DTD/svg11.dtd" >
<svg xmlns="http://www.w3.org/2000/svg">
<metadata>
This is a custom SVG webfont generated by Font Squirrel.
Copyright   : Copyright c 2011 by OmnibusType wwwomnibustypecom with Reserved Font Name Rosario
Designer    : Hector Gatti
Foundry     : Hector Gatti
Foundry URL : wwwomnibustypecom
</metadata>
<defs>
<font id="RosarioItalic" horiz-adv-x="1077" >
<font-face units-per-em="2048" ascent="1638" descent="-410" />
<missing-glyph horiz-adv-x="479" />
<glyph unicode=" "  horiz-adv-x="479" />
<glyph unicode="&#x09;" horiz-adv-x="479" />
<glyph unicode="&#xa0;" horiz-adv-x="479" />
<glyph unicode="!" horiz-adv-x="503" d="M72 109q0 57 39 96t96 39q55 0 95 -40t40 -95.5t-40 -95.5t-95 -40t-95 40t-40 96zM195 442l75 957q4 37 36 61.5t75 24.5q47 0 84 -26.5t37 -72.5q0 -2 -1 -6t-1 -6v-8l-187 -942z" />
<glyph unicode="&#x22;" horiz-adv-x="614" d="M143 1126l52 357h163l-51 -361l-88 -229h-57zM428 1126l51 357h164l-51 -361l-88 -229h-58z" />
<glyph unicode="#" horiz-adv-x="1310" d="M117 494v112h276l35 266h-258v117h274l64 477h127l-66 -477h250l64 477h123l-64 -477h254v-117h-268l-37 -266h254v-112h-268l-70 -494h-125l68 494h-248l-70 -494h-123l68 494h-260zM518 606h248l37 266h-250z" />
<glyph unicode="$" horiz-adv-x="817" d="M25 51l90 131q111 -86 202 -86q78 0 140.5 46t62.5 122q0 53 -40 95t-97 74t-114.5 67t-97.5 92t-40 131q0 133 91 213t229 92l45 227h159l-71 -231q96 -13 180 -70l-74 -125q-104 72 -198 72q-76 0 -133.5 -42t-57.5 -116q0 -45 40 -82.5t97.5 -69.5t114.5 -69t97 -98.5 t40 -140.5q0 -133 -90 -216t-225 -96l-41 -225h-160l70 227q-98 12 -219 78z" />
<glyph unicode="%" horiz-adv-x="1619" d="M92 985q0 178 101.5 322.5t277.5 144.5h848l-899 -1479h-139l831 1364h-428q55 -90 55 -204q0 -102 -42 -209t-129 -186t-195 -79q-133 0 -207 96.5t-74 229.5zM240 993q0 -78 36.5 -144.5t106.5 -66.5q66 0 116 64.5t70.5 141t20.5 142.5q0 80 -31 143.5t-98 63.5 q-94 0 -157.5 -114.5t-63.5 -229.5zM879 315q0 182 102 326.5t279 144.5q129 0 198.5 -96t69.5 -227q0 -102 -42 -209t-130 -185.5t-197 -78.5q-133 0 -206.5 96t-73.5 229zM1026 324q0 -78 37 -144.5t106 -66.5q96 0 152.5 116.5t56.5 229.5q0 80 -32.5 144.5t-98.5 64.5 q-94 0 -157.5 -116t-63.5 -228z" />
<glyph unicode="&#x26;" horiz-adv-x="1349" d="M76 350q0 283 229 463q-43 76 -43 162q0 201 155.5 318.5t375.5 117.5q94 0 193 -31.5t147 -87.5l-86 -96q-98 94 -234 94q-172 0 -275.5 -97t-103.5 -253q0 -23 8 -47q123 53 242 53q96 0 150.5 -34.5t54.5 -100.5q0 -70 -72 -122t-182 -52q-135 0 -240 80 q-63 -72 -97 -164t-34 -172q0 -121 71 -188.5t189 -67.5q160 0 286 91t126 167q0 84 -94 84q-37 0 -58.5 -23.5t-27.5 -50.5h-125q4 90 74.5 136t156.5 46l271 -22q33 0 56 17.5t25 50.5h125q-10 -190 -219 -191h-30q-55 -207 -219 -332t-400 -125q-164 0 -279.5 107.5 t-115.5 269.5zM498 797q51 -51 127 -52q61 0 90.5 16.5t29.5 39.5q0 39 -77 39q-90 0 -170 -43z" />
<glyph unicode="'" horiz-adv-x="321" d="M131 1126l51 357h164l-51 -361l-88 -229h-57z" />
<glyph unicode="(" horiz-adv-x="661" d="M121 430q0 293 128 569.5t349 509.5l131 -20q-440 -487 -440 -1102q0 -346 190 -653l-133 -21q-225 328 -225 717z" />
<glyph unicode=")" horiz-adv-x="671" d="M0 -266q440 483 440 1100q0 348 -190 655l133 20q225 -327 225 -718q0 -573 -475 -1078z" />
<glyph unicode="*" horiz-adv-x="829" d="M154 1153l63 154l248 -123l-39 -74zM205 870l223 207l64 -53l-175 -248zM487 1202v281h162l-76 -281h-86zM522 1026l72 45l174 -201l-141 -98zM600 1188l262 127l39 -158l-289 -57z" />
<glyph unicode="+" horiz-adv-x="1314" d="M139 432v141h439v431h143v-431h440v-141h-440v-432h-143v432h-439z" />
<glyph unicode="," horiz-adv-x="514" d="M37 -188l12 10q106 86 107 141q0 14 -41 59.5t-41 88.5q0 63 41 99t100 36q63 0 99 -41.5t36 -102.5q0 -188 -252 -358z" />
<glyph unicode="-" horiz-adv-x="663" d="M70 455l22 145h494l-23 -145h-493z" />
<glyph unicode="." horiz-adv-x="505" d="M72 111q0 55 39 95t94 40q57 0 97 -39t40 -96.5t-40 -97.5t-95 -40q-57 0 -96 40t-39 98z" />
<glyph unicode="/" horiz-adv-x="600" d="M-29 -16l523 1499h135l-518 -1499h-140z" />
<glyph unicode="0" horiz-adv-x="1050" d="M51 422q0 244 147.5 426t387.5 182q195 0 304 -126.5t109 -321.5q0 -242 -147 -425.5t-387 -183.5q-195 0 -304.5 127t-109.5 322zM225 397q0 -297 252 -297q96 0 168 46.5t109 123t53 160.5t16 178q0 295 -250 295q-96 0 -167.5 -46t-108.5 -123t-54.5 -161t-17.5 -176z " />
<glyph unicode="1" horiz-adv-x="770" d="M78 0l16 137h228l92 684l-226 -63l-12 96l328 156h98l-117 -873h220l-19 -137h-608z" />
<glyph unicode="2" horiz-adv-x="921" d="M72 0v109l192 188q190 190 246 240q68 68 104.5 123t36.5 116q0 49 -30.5 88t-94.5 39q-92 0 -186 -78q-41 -35 -76 -75l-96 77q162 203 389 203q119 0 200 -64.5t81 -181.5q0 -176 -232 -372l-319 -273h587l-28 -139h-774z" />
<glyph unicode="3" horiz-adv-x="778" d="M-174 -328q109 10 224.5 49t219 102.5t169 159t65.5 203.5q0 135 -146 136q-70 0 -161 -31l-41 110q131 72 249.5 191t118.5 229q0 82 -90 82q-100 0 -231 -115l-86 76q74 78 175 122t202 44q92 0 152.5 -42t60.5 -134q0 -104 -89.5 -214t-203.5 -187q14 2 43 2 q106 0 166.5 -65.5t60.5 -174.5q0 -152 -79 -276.5t-206 -201.5t-272 -121t-293 -50z" />
<glyph unicode="4" horiz-adv-x="976" d="M-6 0v84l661 920h193l-115 -863h195l-25 -141h-190l-51 -375h-162l51 375h-557zM184 141h385l90 660z" />
<glyph unicode="5" horiz-adv-x="704" d="M-53 -317q430 135 430 471q0 125 -98.5 240.5t-241.5 185.5l174 424h461l-49 -173h-344l-64 -161q53 -31 102.5 -70t107.5 -100.5t93 -149.5t35 -186q0 -301 -289 -479q-121 -74 -289 -109z" />
<glyph unicode="6" horiz-adv-x="1017" d="M61 387q0 45 7 94q39 276 211 500.5t430 380.5q139 84 256 125l47 -101q-238 -94 -425.5 -268t-273.5 -393q135 100 285 100q143 0 232.5 -97t89.5 -241q0 -213 -137.5 -363.5t-348.5 -150.5q-170 0 -271.5 121t-101.5 293zM240 383q0 -117 54 -200t159 -83 q131 0 208.5 112t77.5 251q0 96 -53 159.5t-147 63.5q-133 0 -279 -137q-20 -80 -20 -166z" />
<glyph unicode="7" horiz-adv-x="831" d="M45 850l39 154h721v-84l-541 -1295h-176l524 1225h-567z" />
<glyph unicode="8" horiz-adv-x="944" d="M49 287q0 74 24.5 138t81 126.5t99.5 101.5t123 103q-82 94 -127 177t-45 181q0 55 21.5 115.5t63.5 118t119.5 94.5t176.5 37q80 0 139 -22.5t90 -54.5t49.5 -75t23.5 -71.5t5 -57.5q0 -123 -74 -225.5t-201 -200.5q68 -76 105 -123t71.5 -125t34.5 -155 q0 -184 -121.5 -290t-318.5 -106q-178 0 -259 91.5t-81 222.5zM213 297q0 -98 57.5 -150.5t137.5 -52.5q94 0 165.5 68.5t71.5 199.5q0 104 -180 293q-125 -98 -188.5 -178t-63.5 -180zM391 1139q0 -66 34 -124.5t105 -140.5q203 171 203 318q0 57 -35.5 111.5t-107.5 54.5 q-102 0 -150.5 -73t-48.5 -146z" />
<glyph unicode="9" horiz-adv-x="995" d="M-14 -334q543 217 706 613q-127 -100 -286 -101q-137 0 -227.5 105.5t-90.5 240.5q0 201 141.5 353.5t341.5 152.5q174 0 273.5 -113.5t99.5 -291.5q0 -51 -6 -101q-39 -279 -212 -495.5t-435 -360.5q-102 -59 -258 -108zM266 541q0 -96 54.5 -160t148.5 -64 q135 0 276 138q21 80 21 174q0 119 -51 196.5t-162 77.5q-123 0 -205 -115.5t-82 -246.5z" />
<glyph unicode=":" horiz-adv-x="505" d="M72 111q0 55 39 95t94 40q57 0 97 -39t40 -96.5t-40 -97.5t-95 -40q-57 0 -96 40t-39 98zM164 741q0 55 39 95.5t94 40.5q57 0 97 -39t40 -96.5t-40 -97.5t-95 -40q-57 0 -96 40t-39 97z" />
<glyph unicode=";" horiz-adv-x="514" d="M37 -188l12 10q106 86 107 141q0 14 -41 59.5t-41 88.5q0 63 41 99t100 36q63 0 99 -41.5t36 -102.5q0 -188 -252 -358zM168 741q0 55 39 95.5t94 40.5q57 0 97 -39t40 -96.5t-40 -97.5t-95 -40q-57 0 -96 40t-39 97z" />
<glyph unicode="&#x3c;" horiz-adv-x="1290" d="M139 426v149l1020 437v-156l-829 -358l829 -359v-153z" />
<glyph unicode="=" horiz-adv-x="1290" d="M139 236v141h1022v-141h-1022zM139 625v139h1022v-139h-1022z" />
<glyph unicode="&#x3e;" horiz-adv-x="1290" d="M139 -14v153l830 359l-830 358v156l1020 -437v-149z" />
<glyph unicode="?" horiz-adv-x="782" d="M72 106.5q0 55.5 40 96.5t95 41t95 -41.5t40 -96.5q0 -53 -40 -94t-93 -41q-55 0 -96 40t-41 95.5zM117 707q0 102 52 167.5t127 96t149.5 57.5t127 76t52.5 129q0 57 -47.5 92t-108.5 35q-104 0 -156 -29l-34 137q80 25 184 25q145 0 235 -78t90 -221q0 -113 -52 -184.5 t-128 -103.5t-151.5 -55.5t-128 -59t-52.5 -93.5q0 -76 79 -109.5t169 -33.5l-39 -139q-156 14 -262 82.5t-106 208.5z" />
<glyph unicode="@" horiz-adv-x="1701" d="M104 393q0 215 97.5 410.5t290 327t436.5 131.5q283 0 475 -168t192 -457q0 -207 -107.5 -369t-279.5 -162q-70 0 -120 28t-66 51.5t-25 45.5h-2l-2 1l-2 1q-43 -61 -107.5 -96t-127.5 -35q-127 0 -187.5 85t-60.5 216q0 106 46 218t144.5 196t221.5 84q109 0 172 -74 q14 18 32 60h76l-41 -277q-41 -254 -41 -309q0 -106 94 -106q125 0 203 134t78 308q0 248 -162 393.5t-403 145.5q-215 0 -384 -118t-253 -294t-84 -371q0 -244 153.5 -406.5t389.5 -162.5q77 -1 163 22l25 -84q-92 -25 -188 -24q-281 0 -463.5 187.5t-182.5 467.5zM659 399 q0 -197 125 -196q68 0 117 53t78 152.5t41 163t24 163.5q-61 66 -131 66q-84 0 -144 -76t-85 -164t-25 -162z" />
<glyph unicode="A" horiz-adv-x="1239" d="M-12 0l692 1483h178l291 -1483h-199l-96 510h-465l-235 -510h-166zM453 647h374l-108 586z" />
<glyph unicode="B" horiz-adv-x="1187" d="M92 0l182 1350v133h455q397 0 397 -307q0 -137 -81.5 -233.5t-217.5 -133.5q266 -68 267 -328q0 -481 -615 -481h-387zM297 141h211q395 1 395 353q0 121 -90 177t-223 56h-217zM395 874h203q156 0 246 73t90 220q0 174 -227 174h-250z" />
<glyph unicode="C" horiz-adv-x="1198" d="M92 610q0 229 87 429t268.5 332t418.5 132h3q266 0 401 -157l-115 -119q-115 135 -309 135q-137 0 -248 -71.5t-175.5 -186.5t-98 -246t-33.5 -260q0 -207 95 -336t296 -129q190 0 362 127l64 -139q-201 -141 -449 -141q-272 0 -419.5 177t-147.5 453z" />
<glyph unicode="D" horiz-adv-x="1390" d="M92 0l182 1350v133h500q266 0 400.5 -165t134.5 -429q0 -170 -46 -325.5t-135.5 -283.5t-234.5 -204t-330 -76h-471zM297 141h278q137 0 245 71t170.5 183.5t94 237.5t31.5 248q0 201 -85 330.5t-275 129.5h-299z" />
<glyph unicode="E" horiz-adv-x="1024" d="M92 0l180 1350v133h842l-20 -142h-641l-66 -512h496l-21 -139h-495l-74 -549h641l-19 -141h-823z" />
<glyph unicode="F" horiz-adv-x="958" d="M90 0l180 1350v133h779l-19 -142h-577l-66 -510h457l-21 -139h-456l-95 -692h-182z" />
<glyph unicode="G" horiz-adv-x="1366" d="M92 575q0 174 49 337t142.5 296t244 214t336.5 81q121 0 249 -42t198 -128l-117 -121q-80 80 -159 115t-189 35q-141 0 -253 -70.5t-176.5 -184.5t-97 -244t-32.5 -265q0 -205 90 -335t285 -130q152 0 258 101.5t127 257.5l16 133h-346l18 139h533q-53 -358 -88 -764h-99 l-39 154q-180 -174 -430 -174q-258 0 -389 167.5t-131 427.5z" />
<glyph unicode="H" horiz-adv-x="1376" d="M90 0l182 1350v133h203l-86 -643h684l86 643h184l-200 -1483h-185l95 700h-684l-95 -700h-184z" />
<glyph unicode="I" horiz-adv-x="514" d="M96 0l183 1350v133h202l-200 -1483h-185z" />
<glyph unicode="J" horiz-adv-x="518" d="M-371 -403l82 116q72 -51 150 -51q190 0 245 373l181 1317v131h200l-202 -1465q-33 -236 -126 -361.5t-296 -125.5q-145 0 -234 66z" />
<glyph unicode="K" horiz-adv-x="1142" d="M90 0l182 1350v133h203l-90 -662l647 662h193l-650 -662l486 -821h-227l-455 776l-105 -776h-184z" />
<glyph unicode="L" horiz-adv-x="964" d="M92 0l182 1350v133h205l-180 -1342h592l-21 -141h-778z" />
<glyph unicode="M" horiz-adv-x="1615" d="M90 0l180 1352v131h254l256 -1153l561 1153h242l-201 -1483h-184l162 1206l-586 -1210h-108l-263 1212l-163 -1208h-150z" />
<glyph unicode="N" horiz-adv-x="1380" d="M92 0l182 1350v133h234l536 -1108l152 1108h150l-201 -1493h-117l-616 1263l-168 -1253h-152z" />
<glyph unicode="O" horiz-adv-x="1449" d="M92 592q0 168 47 327.5t136.5 291.5t233.5 212t325 80q268 0 401 -168t133 -438q0 -174 -48 -335t-138 -293t-235.5 -210.5t-323.5 -78.5q-264 0 -397.5 172t-133.5 440zM287 596q0 -94 18.5 -175t58 -150.5t112.5 -109.5t173 -40q137 0 242.5 72.5t165 190.5t89.5 246 t30 257q0 205 -85 340t-276 135q-111 0 -202 -49t-150.5 -127t-100 -180.5t-58 -205t-17.5 -204.5z" />
<glyph unicode="P" horiz-adv-x="1103" d="M94 0l182 1350v133h404q195 0 314.5 -89t119.5 -282q0 -238 -150.5 -382t-392.5 -144h-213l-77 -586h-187zM379 723h205q154 0 246 106.5t92 260.5q0 123 -68 187t-190 64h-203z" />
<glyph unicode="Q" horiz-adv-x="1462" d="M92 588q0 168 47 327.5t136.5 292.5t233.5 214t325 81q266 0 400 -170t134 -440q0 -268 -121 -513t-348 -349q74 -27 111 -51q541 -303 831 -304q133 1 348 62l31 -96q-268 -96 -465 -97q-139 0 -313 62.5t-311.5 138.5t-295 147.5t-260.5 83.5q-250 31 -366.5 202 t-116.5 409zM287 592q0 -205 85 -341t277 -136q137 0 242.5 73.5t165 191.5t89.5 246t30 255q0 207 -85 344t-276 137q-111 0 -202 -49t-150.5 -129t-100 -182.5t-58 -206t-17.5 -203.5z" />
<glyph unicode="R" horiz-adv-x="1163" d="M90 0l182 1350v133h443q176 0 288.5 -84t112.5 -260q0 -150 -91 -274t-234 -163l303 -702h-211l-277 668q-31 -4 -184 -4h-57l-89 -664h-186zM385 803h150q178 0 283.5 77.5t105.5 243.5q0 106 -72 161.5t-184 55.5h-211z" />
<glyph unicode="S" horiz-adv-x="1038" d="M25 90l86 154q98 -70 160.5 -96.5t160.5 -26.5q123 0 218 92t95 213q0 86 -56 149.5t-136 107.5t-160 92t-136 129t-56 192q0 193 143 300t348 107q185 0 328 -96l-86 -139q-117 94 -256 94q-117 0 -203 -63.5t-86 -172.5q0 -76 56.5 -135t137.5 -104t161.5 -96.5 t137 -137.5t56.5 -200q0 -209 -149.5 -341t-364.5 -132q-207 0 -399 110z" />
<glyph unicode="T" horiz-adv-x="1052" d="M82 1341l20 142h1041l-19 -142h-428l-180 -1341h-186l180 1341h-428z" />
<glyph unicode="U" horiz-adv-x="1306" d="M94 393q0 55 8 107l115 852v131h205l-133 -985q-6 -49 -6 -88q0 -133 69.5 -211t220.5 -78q184 0 291 108.5t131 298.5l129 955h152l-131 -957q-35 -248 -178.5 -397t-417.5 -149q-238 0 -346.5 113.5t-108.5 299.5z" />
<glyph unicode="V" horiz-adv-x="1060" d="M90 1483h195l211 -1149l530 1149h158l-690 -1489h-115z" />
<glyph unicode="W" horiz-adv-x="1628" d="M90 1483h193l143 -1131l442 1131h144l141 -1131l444 1131h152l-588 -1489h-149l-142 1106l-436 -1106h-149z" />
<glyph unicode="X" horiz-adv-x="1116" d="M-68 0l551 762l-313 721h209l237 -541l394 541h174l-504 -686l348 -797h-213l-268 610l-443 -610h-172z" />
<glyph unicode="Y" horiz-adv-x="976" d="M86 1483h211l250 -574l383 574h172l-508 -750l-98 -733h-187l99 735z" />
<glyph unicode="Z" horiz-adv-x="1089" d="M-35 0l19 137l897 1204h-693l19 142h911l-18 -137l-897 -1205h760l-33 -141h-965z" />
<glyph unicode="[" horiz-adv-x="679" d="M86 -266l248 1749h405l-14 -101h-246l-217 -1548h246l-16 -100h-406z" />
<glyph unicode="\" horiz-adv-x="735" d="M10 1483h137l510 -1483h-131z" />
<glyph unicode="]" horiz-adv-x="669" d="M-20 -262l16 100h246l217 1546h-248l16 99h406l-248 -1745h-405z" />
<glyph unicode="^" horiz-adv-x="1265" d="M115 0l442 1006h150l446 -1006h-156l-362 819l-363 -819h-157z" />
<glyph unicode="_" horiz-adv-x="946" d="M-43 -262l18 112h1008l-18 -112h-1008z" />
<glyph unicode="`" horiz-adv-x="507" d="M102 1483h242l168 -301h-150z" />
<glyph unicode="a" d="M76 365q0 152 64.5 302t191.5 256.5t282 106.5q150 0 224 -96l43 80h90l-115 -778q-4 -29 -4 -43q0 -82 68 -82q32 0 81 16l23 -102q-90 -47 -154 -48q-72 0 -115.5 49.5t-45.5 125.5h-9q-115 -178 -303 -179q-158 0 -239.5 110t-81.5 282zM266 356q0 -102 38 -179 t126 -77q90 0 158.5 79t107 192t58.5 258l28 196q-68 78 -161 78q-115 0 -200 -97t-120 -218t-35 -232z" />
<glyph unicode="b" horiz-adv-x="1026" d="M76 68l178 1380v117h180l-88 -656q141 121 277 121q162 0 243.5 -107.5t81.5 -271.5q0 -281 -169 -479.5t-447 -198.5q-66 0 -138.5 25t-117.5 70zM256 201q0 -100 119 -101q123 0 216 95.5t135 219t42 244.5q0 244 -174 244q-72 0 -146.5 -44t-121.5 -107l-68 -529 q-2 -2 -2 -8v-14z" />
<glyph unicode="c" horiz-adv-x="862" d="M74 403q0 256 146.5 441.5t387.5 185.5q156 0 273 -104l-103 -113q-90 90 -207 90q-102 0 -178 -82t-108.5 -186.5t-32.5 -204.5q0 -127 56.5 -221t170.5 -94q121 0 248 90l57 -131q-102 -55 -168.5 -78t-162.5 -23q-182 0 -280.5 121t-98.5 309z" />
<glyph unicode="d" d="M74 360q0 152 63.5 303.5t191.5 259t283 107.5q113 0 183 -80l61 439q8 49 8 65v111h178l-190 -1352q-2 -2 -2 -10v-15q0 -77 66 -77h2q33 0 55 8q6 2 14 5t12 3l23 -102q-90 -47 -154 -48q-72 0 -116.5 48.5t-44.5 117.5v9h-9q-125 -178 -301 -179q-162 0 -242.5 110 t-80.5 277zM262 354q0 -100 38 -176t130 -76q86 0 148.5 58.5t101.5 185.5t52 192.5t35 208.5q3 25 5 37l4 43q-61 76 -160 76q-111 0 -195.5 -98t-121.5 -220t-37 -231z" />
<glyph unicode="e" horiz-adv-x="950" d="M76 393q0 246 149.5 441.5t388.5 195.5q115 0 189 -53t74 -164q0 -188 -201 -305q-154 -90 -426 -94v-11q0 -121 61.5 -203.5t177.5 -82.5q150 0 285 92l60 -121q-158 -115 -355 -115q-186 0 -294.5 117t-108.5 303zM260 532q193 0 303 68q55 35 98.5 89.5t43.5 109.5 q0 104 -117 104q-121 0 -217.5 -120.5t-110.5 -250.5z" />
<glyph unicode="f" horiz-adv-x="512" d="M-317 -406l81 117q43 -31 70 -41t74 -10q152 0 182 234l133 980h-145l16 130h148q14 123 39.5 216t75 179t133 132t200.5 46q135 0 246 -80l-80 -121q-68 72 -154 72q-78 0 -135 -38t-89 -107.5t-48 -139t-27 -159.5h230l-17 -130h-229l-137 -999q-47 -346 -338 -346 q-133 0 -229 65z" />
<glyph unicode="g" horiz-adv-x="1054" d="M37 -379l84 129q98 -94 205 -94q283 0 368 496l-6 2q-102 -180 -285 -181q-158 0 -240.5 111t-82.5 276q0 158 64.5 308.5t195.5 256t297 105.5q92 0 188 -45l152 64l-119 -859q-14 -104 -32.5 -184t-57.5 -175t-91 -156.5t-138 -103.5t-195 -42q-154 0 -307 92zM268 354 q0 -102 41 -178t127 -76q240 0 322 545l33 219q-70 39 -150 39q-121 0 -210 -94t-126 -215t-37 -240z" />
<glyph unicode="h" horiz-adv-x="1009" d="M80 0l194 1448v117h181l-97 -688q153 153 310 153h2q258 0 258 -266q0 -43 -6 -92l-72 -553l4 -119h-186l82 618q8 43 8 107q0 158 -131 158q-102 0 -283 -135l-100 -748h-164z" />
<glyph unicode="i" horiz-adv-x="464" d="M82 0l119 887v117h180l-119 -885v-119h-180zM225 1335q0 51 41 94.5t94 43.5q47 0 76 -31t29 -74q0 -53 -40 -94t-95 -41q-47 0 -76 29.5t-29 72.5z" />
<glyph unicode="j" horiz-adv-x="468" d="M-336 -406l82 117q66 -51 143 -51q152 0 183 234l137 993v117h178l-154 -1129q-47 -346 -337 -346q-131 0 -232 65zM229 1335q0 55 39 95t94 40q47 0 77 -29.5t30 -72.5q0 -55 -40 -96t-95 -41q-47 0 -76 30.5t-29 73.5z" />
<glyph unicode="k" horiz-adv-x="872" d="M80 0l196 1448v117h181l-131 -965l405 404h178l-424 -418l346 -586h-192l-322 547l-73 -547h-164z" />
<glyph unicode="l" horiz-adv-x="464" d="M80 0l196 1448v117h181l-195 -1446v-119h-182z" />
<glyph unicode="m" horiz-adv-x="1560" d="M84 0l96 735q6 47 6 88q0 72 -16 133l-14 48l180 20q18 -86 18 -147q53 47 90 73.5t96.5 53t114.5 26.5q188 0 244 -168q182 168 324 168q256 0 256 -266q0 -41 -6 -90l-74 -555v-119h-178l82 621q8 43 8 102q0 160 -133 160q-109 0 -269 -138q0 -33 -6 -71l-88 -674 h-164l82 621q8 43 8 106q0 156 -131 156q-98 0 -264 -135l-100 -748h-162z" />
<glyph unicode="n" horiz-adv-x="1011" d="M84 0l96 717q8 51 8 106q0 74 -16 135q-12 37 -16 46l180 20q14 -55 18 -147q175 153 320 153h2q254 0 254 -266q0 -41 -6 -90l-74 -555v-119h-180l84 621q10 57 10 110q0 152 -133 152q-117 0 -283 -135l-100 -748h-164z" />
<glyph unicode="o" horiz-adv-x="1040" d="M76 403q0 160 58.5 300.5t178 233.5t277.5 93q184 0 280.5 -123t96.5 -305q0 -160 -59.5 -301t-180.5 -234.5t-276 -93.5q-182 0 -278.5 123t-96.5 307zM250 414q0 -121 53 -217.5t162 -96.5q84 0 149.5 49.5t102.5 127t56.5 161.5t19.5 162q0 123 -52.5 213t-165.5 90 q-106 0 -184 -85t-109.5 -191.5t-31.5 -212.5z" />
<glyph unicode="p" horiz-adv-x="1060" d="M27 -459l149 1141q12 98 12 147q0 94 -28 175l180 22q16 -94 16 -141v-17q111 162 301 162q158 0 241 -113.5t83 -285.5q0 -250 -148.5 -454t-375.5 -204q-55 0 -111.5 21.5t-87.5 52.5l-51 -393v-113h-180zM274 180q31 -35 84.5 -57.5t104.5 -22.5q104 0 182 91.5 t112 211t34 240.5q0 104 -39 182t-136 78q-80 0 -141 -56t-96 -149.5t-53.5 -170t-28.5 -162.5q-6 -37 -13.5 -101.5t-9.5 -83.5z" />
<glyph unicode="q" horiz-adv-x="1048" d="M74 360q0 104 36.5 219t102.5 216.5t171 168t228 66.5q119 0 219 -88l66 127h80l-191 -1411v-117h-180l84 596q-121 -164 -293 -164q-162 0 -242.5 110t-80.5 277zM262 354q0 -104 39 -179t129 -75q70 0 126 47.5t91 112t62.5 162.5t41 170t25.5 162l6 45l4 26 q-63 78 -170 78q-88 0 -159.5 -58.5t-111.5 -146.5t-61.5 -178t-21.5 -166z" />
<glyph unicode="r" horiz-adv-x="669" d="M84 0l94 733q6 49 6 96q0 119 -34 177l188 22q20 -63 20 -160v-26q63 80 160 133t201 53l-66 -180q-166 0 -311 -178l-88 -670h-170z" />
<glyph unicode="s" horiz-adv-x="770" d="M12 57l88 125q98 -82 207 -82q82 0 141.5 43t59.5 123q0 53 -40 95t-96.5 74t-113.5 67t-97 92t-40 131q0 150 108.5 227.5t262.5 77.5h4q132 0 243 -67l-69 -123q-88 63 -189 63q-78 0 -135 -42t-57 -116q0 -45 40 -83.5t97 -70.5t114.5 -69t97.5 -97t40 -140 q0 -147 -106.5 -229.5t-258.5 -82.5q-164 0 -301 84z" />
<glyph unicode="t" horiz-adv-x="587" d="M66 874l18 130h141l41 288h183l-62 -288h231l-18 -130h-231l-84 -649q-2 -6 -2 -16q-2 -10 -2 -27q0 -82 79 -82q39 0 134 23l14 -109q-20 -8 -66 -20q-78 -20 -131 -21q-88 0 -141 40t-53 153q0 31 2 45l4 27l84 636h-141z" />
<glyph unicode="u" horiz-adv-x="1044" d="M82 244q0 39 6 82l78 561v117h178l-88 -654q-6 -47 -6 -84q0 -166 137 -166q45 0 90 21.5t91 72t83 146.5t58 231l45 314v119h180l-105 -756q-4 -45 -4 -53q0 -86 58 -86q27 0 57 10q11 2 27 10l22 -106q-31 -16 -53 -25q-49 -23 -100 -23q-61 0 -111.5 45.5t-50.5 129.5 h-8q-104 -176 -322 -177q-133 0 -197.5 72t-64.5 199z" />
<glyph unicode="v" horiz-adv-x="856" d="M86 1004h172l154 -764l358 764h154l-482 -1014h-149z" />
<glyph unicode="w" horiz-adv-x="1249" d="M86 1004h168l102 -685l297 685h119l105 -685l294 685h146l-440 -1014h-119l-103 690l-301 -690h-118z" />
<glyph unicode="x" horiz-adv-x="794" d="M-74 0l393 520l-233 484h182l166 -340l266 340h162l-362 -469l258 -535h-187l-186 391l-297 -391h-162z" />
<glyph unicode="y" horiz-adv-x="837" d="M-311 -416l78 123q92 -43 149 -43q240 0 360 275l29 67l-213 998h174l150 -762l352 762h156l-508 -1108q-170 -367 -510 -367q-123 0 -217 55z" />
<glyph unicode="z" horiz-adv-x="886" d="M37 0v98l604 776h-455l19 130h661v-97l-608 -778h524l-20 -129h-725z" />
<glyph unicode="{" horiz-adv-x="657" d="M127 561l14 94q115 0 150 189l47 319q27 170 111 251t268 81l-15 -96q-106 0 -146 -41t-52 -148l-47 -338q-33 -223 -166 -266q96 -43 96 -178q0 -39 -6 -88l-47 -338q-6 -37 -6 -65q0 -68 34.5 -94.5t116.5 -26.5l-14 -97q-162 0 -227.5 59.5t-65.5 186.5q0 37 8 88 l45 314q6 31 6 65q0 129 -104 129z" />
<glyph unicode="|" horiz-adv-x="483" d="M172 -223v1743h139v-1743h-139z" />
<glyph unicode="}" horiz-adv-x="657" d="M4 -281l12 95q109 0 150 35.5t53 146.5l45 348q27 211 172 270q-102 39 -102 177q0 47 8 88l47 362q4 45 4 51q0 72 -33.5 94.5t-123.5 22.5l12 94h49q131 0 191.5 -62.5t60.5 -187.5q0 -37 -6 -84l-47 -335q-4 -29 -4 -46q0 -129 106 -129l-12 -96q-131 0 -154 -196 l-45 -314q-25 -166 -104.5 -250t-235.5 -84h-43z" />
<glyph unicode="~" horiz-adv-x="1144" d="M90 506q37 82 110.5 139t157.5 57q92 0 232.5 -67.5t187.5 -67.5q51 0 100 41t76 94l101 -94q-47 -74 -125 -132t-152 -58q-78 0 -212 68.5t-208 68.5q-51 0 -95 -42t-66 -97z" />
<glyph unicode="&#xa1;" horiz-adv-x="501" d="M41 -371q0 7 2 9l186 942l119 -19l-76 -956q-4 -37 -35.5 -61.5t-74.5 -24.5q-47 0 -84 26.5t-37 71.5v12zM201 895q0 55 40 95t95 40t95 -40t40 -95q0 -57 -39 -96t-96 -39q-55 0 -95 40t-40 95z" />
<glyph unicode="&#xa2;" horiz-adv-x="862" d="M74 403q0 240 128 420.5t343 208.5l45 228h160l-74 -232q127 -24 205 -98l-103 -117q-96 90 -207 90q-125 0 -210 -118.5t-103 -264.5q-6 -43 -6 -90q0 -123 59.5 -220t167.5 -97q70 0 123 20.5t125 71.5l57 -133q-94 -53 -160.5 -76t-154.5 -23l-41 -223h-160l74 238 q-127 37 -197.5 149.5t-70.5 265.5z" />
<glyph unicode="&#xa3;" horiz-adv-x="1052" d="M33 -4l20 141h183l77 590h-149l20 139h150l31 240q23 193 146.5 293t293.5 100q109 0 191.5 -52.5t123.5 -148.5l-157 -86q-49 145 -175 146q-90 0 -157.5 -65.5t-83.5 -184.5l-31 -242h252l-20 -139h-252l-78 -590h569l-20 -141h-934z" />
<glyph unicode="&#xa4;" horiz-adv-x="1097" d="M96 334l115 115q-63 106 -64 231q0 123 66 231l-117 117q51 49 101 100l110 -112q102 86 238 86q133 0 235 -84l113 110l100 -100l-119 -117q68 -111 68 -231q0 -123 -68 -234l119 -114l-100 -99q-68 61 -111 109q-102 -86 -237 -86t-240 86l-33 -34l-40 -40 q-19 -18 -35 -35zM297 680q0 -129 74 -214t174 -85q102 0 176 84t74 215q0 125 -72 211t-178 86q-104 0 -176 -87t-72 -210z" />
<glyph unicode="&#xa5;" horiz-adv-x="958" d="M90 330l14 94h285l8 74l-26 51h-252l14 94h186l-188 361h174l207 -381l291 381h151l-280 -361h190l-14 -94h-252l-41 -53l-10 -72h289l-15 -94h-289l-45 -330h-157l45 330h-285z" />
<glyph unicode="&#xa6;" horiz-adv-x="487" d="M172 -236v713h139v-713h-139zM172 805v715h139v-715h-139z" />
<glyph unicode="&#xa7;" horiz-adv-x="929" d="M-31 -446l49 124q4 0 44 -12t53 -12q172 0 172 223q0 80 -38 520.5t-38 540.5q0 340 258 375q16 129 107.5 199.5t216.5 70.5q35 0 96 -16q22 -9 53 -15l-51 -135q-45 27 -98 27q-172 0 -172 -221q0 -123 38.5 -563.5t38.5 -497.5q0 -78 -19.5 -148.5t-80.5 -138.5 t-160 -82q-23 -139 -115 -204.5t-208 -65.5q-104 0 -146 31zM369 952q0 -55 35.5 -452.5t39.5 -558.5q93 45 93 209q0 92 -34 486t-38 529q-96 -43 -96 -213z" />
<glyph unicode="&#xa8;" horiz-adv-x="569" d="M2 1278q0 47 35 82t82 35q49 0 83 -34t34 -83q0 -47 -35 -82t-82 -35t-82 35t-35 82zM336 1278q0 47 35 82t82 35q49 0 82.5 -34t33.5 -83q0 -47 -34.5 -82t-81.5 -35t-82 35t-35 82z" />
<glyph unicode="&#xa9;" horiz-adv-x="1300" d="M90 512q0 229 164 393t393.5 164t393 -164t163.5 -393t-163.5 -393t-393 -164t-393.5 164t-164 393zM170 512q0 -197 140.5 -337t337 -140t336.5 140t140 337t-140 337t-336.5 140t-337 -140t-140.5 -337zM350 514q0 145 86 239.5t232 94.5q94 0 194 -68l-61 -78 q-66 55 -150 55.5t-130 -72.5t-46 -161q0 -94 47 -172t135 -78q80 1 162 58l53 -88q-109 -63 -221 -64q-139 0 -220 95.5t-81 238.5z" />
<glyph unicode="&#xaa;" horiz-adv-x="743" d="M66 1042q0 156 100 295.5t250 139.5q100 0 145 -62l29 51h57l-74 -508q-2 -8 -2 -26q0 -53 43 -53q23 0 54 10l14 -68q-66 -31 -98 -30q-47 0 -78 31.5t-35 82.5q-74 -117 -197 -117q-102 0 -155 72t-53 182zM113 567l18 111h426l-16 -111h-428zM188 1038q0 -66 26 -117 t81 -51q158 1 211 347l20 126q-45 51 -106 52q-74 0 -129 -63.5t-79 -142.5t-24 -151z" />
<glyph unicode="&#xab;" horiz-adv-x="929" d="M92 680l342 330l123 -23l-281 -309l197 -307l-121 -19zM395 680l342 330l127 -23l-284 -309l198 -307l-123 -19z" />
<glyph unicode="&#xac;" horiz-adv-x="1306" d="M147 571v123h1010v-512h-125v389h-885z" />
<glyph unicode="&#xad;" horiz-adv-x="1302" d="M147 442v125h1008v-125h-1008z" />
<glyph unicode="&#xae;" horiz-adv-x="940" d="M68 1235q0 168 118.5 286.5t286.5 118.5q166 0 287 -119.5t121 -285.5t-121 -286t-287 -120q-168 0 -286.5 119t-118.5 287zM135 1235q0 -139 99.5 -238.5t238.5 -99.5q141 0 240.5 99.5t99.5 238.5t-99.5 238.5t-240.5 99.5q-139 0 -238.5 -99.5t-99.5 -238.5zM307 1008 v460h180q160 0 160 -131q0 -82 -94 -116l149 -213h-122l-134 196h-36v-196h-103zM410 1280h49q86 0 86 61q0 51 -72 52h-63v-113z" />
<glyph unicode="&#xaf;" horiz-adv-x="565" d="M-16 1225v121h594v-121h-594z" />
<glyph unicode="&#xb0;" horiz-adv-x="700" d="M41 1214q0 127 90 217.5t217 90.5q129 0 220 -90.5t91 -217.5q0 -129 -90 -218t-219 -89t-219 89t-90 218zM170 1214.5q0 -77.5 52 -131t126 -53.5t128 53.5t54 131t-53 131t-127 53.5t-127 -53.5t-53 -131z" />
<glyph unicode="&#xb1;" horiz-adv-x="1294" d="M139 0v139h1022v-139h-1022zM139 514v141h439v349h143v-349h440v-141h-440v-350h-143v350h-439z" />
<glyph unicode="&#xb2;" horiz-adv-x="935" d="M78 889v78l6 6q29 20 88 66t145 125t161 160t128 171t53 158q0 57 -35.5 93t-101.5 36q-80 0 -178 -56q-41 -20 -80 -53l-51 96q45 39 98 66q127 66 258 66t191.5 -62.5t60.5 -155.5q0 -215 -258 -448q-117 -111 -258 -207h455l-55 -139h-627z" />
<glyph unicode="&#xb3;" horiz-adv-x="935" d="M88 971q248 12 387 92t139 203q0 125 -202 125h-22q-11 0 -19.5 -1t-15.5 -2.5t-11 -1.5h-4v97q113 20 205 73.5t92 143.5q0 82 -125 82q-57 0 -131 -31t-127 -72l-51 95q74 55 175 91t187 36q94 0 160 -36t66 -120q0 -164 -216 -254q88 -10 142.5 -63.5t54.5 -137.5 q0 -49 -17.5 -99t-64.5 -107.5t-119.5 -101.5t-195.5 -77t-281 -39z" />
<glyph unicode="&#xb4;" horiz-adv-x="481" d="M92 1182l205 301h264l-317 -301h-152z" />
<glyph unicode="&#xb5;" horiz-adv-x="1196" d="M109 -381l170 1268l-9 117h189l-84 -617q-8 -43 -8 -98q0 -164 133 -164q57 0 124.5 30.5t103.5 58.5t54 46l84 627l-8 117h189l-115 -861q0 -23 22 -22q20 0 66 12l37 12l20 -104q-23 -12 -71 -33q-82 -33 -133.5 -33t-77 37t-25.5 94v13q-55 -51 -145 -98.5t-170 -47.5 q-61 0 -125 29l-54 -383h-167z" />
<glyph unicode="&#x3bc;" horiz-adv-x="1196" d="M109 -381l170 1268l-9 117h189l-84 -617q-8 -43 -8 -98q0 -164 133 -164q57 0 124.5 30.5t103.5 58.5t54 46l84 627l-8 117h189l-115 -861q0 -23 22 -22q20 0 66 12l37 12l20 -104q-23 -12 -71 -33q-82 -33 -133.5 -33t-77 37t-25.5 94v13q-55 -51 -145 -98.5t-170 -47.5 q-61 0 -125 29l-54 -383h-167z" />
<glyph unicode="&#xb6;" horiz-adv-x="1118" d="M10 -279q0 104 79 182.5t183 78.5l-16 -111q-55 0 -95 -39t-40 -94q0 -43 29.5 -71.5t72.5 -28.5q49 0 87 34.5t44 81.5l142 1020q-145 0 -240.5 91t-95.5 237q0 217 148.5 340t369.5 123h393l-16 -111h-115l-221 -1583q-12 -92 -87 -159.5t-167 -67.5q-10 0 -39 4 q-82 -121 -219 -121q-86 0 -141.5 54t-55.5 140zM467 -246h8q49 0 88 35t45 82l221 1583h-124z" />
<glyph unicode="&#xb7;" horiz-adv-x="583" d="M168 524q0 55 39 95t94 40q57 0 97 -38.5t40 -96t-40 -97.5t-95 -40q-57 0 -96 40t-39 97z" />
<glyph unicode="&#xb8;" horiz-adv-x="468" d="M133 -381q12 0 43 11.5t68 45t37 80.5q0 66 -97 99l95 161h92l-62 -110q119 -37 119 -146q0 -100 -113 -157q-61 -33 -168 -49z" />
<glyph unicode="&#xb9;" horiz-adv-x="935" d="M131 889l16 121h242l94 706l-245 -71l-21 100q152 51 348 135h97l-117 -870h194l-16 -121h-592z" />
<glyph unicode="&#xba;" horiz-adv-x="727" d="M68 1069q0 154 95 282t247 128q121 0 185 -82t64 -205q0 -156 -93 -282t-249 -126q-121 0 -185 80t-64 205zM76 567l16 111h428l-18 -111h-426zM193 1083q0 -80 32.5 -140t104.5 -60q96 0 150.5 98.5t54.5 204.5q0 80 -32 137t-106 57q-96 0 -150 -96t-54 -201z" />
<glyph unicode="&#xbb;" horiz-adv-x="929" d="M92 375l285 309l-201 309l125 17l260 -328l-344 -330zM397 375l283 309l-199 309l123 17l260 -328l-344 -330z" />
<glyph unicode="&#xbc;" horiz-adv-x="1890" d="M88 508l16 121h240l96 706l-245 -71l-21 100q193 66 346 135h96l-116 -870h194l-14 -121h-592zM537 -45q692 1352 811 1587h122l-815 -1587h-118zM1049 225v82l538 682h156l-86 -643h145l-49 -121h-113l-30 -225h-156l31 225h-436zM1221 346h280l33 246q2 14 9 64.5 t11 76.5q6 31 15 82q-82 -133 -348 -469z" />
<glyph unicode="&#xbd;" horiz-adv-x="2004" d="M88 508l14 121h242l94 706l-243 -71l-23 100q176 59 346 135h98l-116 -870h194l-16 -121h-590zM535 -45q692 1352 811 1587h122l-813 -1587h-120zM1165 0v78l45 33q111 88 214.5 181t212 233.5t108.5 232.5q0 57 -35 91t-100 34q-74 0 -152 -38t-104 -65l-51 99 q178 133 360 133q127 0 190.5 -62.5t63.5 -156.5q0 -80 -47 -172.5t-108.5 -163t-141.5 -143t-126 -107.5t-83 -60h438l-55 -147h-629z" />
<glyph unicode="&#xbe;" horiz-adv-x="1884" d="M88 588q248 12 386 92t138 203q0 125 -202 125h-20q-11 0 -19.5 -1t-15.5 -2t-11 -1h-4v96q68 14 126 35.5t111.5 70.5t53.5 111q0 82 -119 82q-59 0 -132 -31t-126 -72q-31 53 -49 95q76 55 175 91t185 36q92 0 160 -38t68 -122q0 -92 -65.5 -153.5t-156.5 -96.5 q90 -10 145.5 -62.5t55.5 -136.5q0 -49 -16.5 -99t-63.5 -107.5t-118.5 -102.5t-195.5 -78t-284 -39zM528 -45l811 1587h121l-811 -1587h-121zM1042 225v82l537 682h158l-86 -643h145q-31 -68 -49 -121h-113l-30 -225h-156l31 225h-437zM1212 346h283l33 246q10 104 35 223 q-72 -115 -351 -469z" />
<glyph unicode="&#xbf;" horiz-adv-x="782" d="M72 25q0 94 37.5 160.5t95 98t123 58.5t123 44t95.5 50t38 82q0 55 -45 90t-96.5 45.5t-106.5 10.5l39 137q156 -14 262 -83t106 -208q0 -102 -52 -168t-127 -96.5t-149.5 -57t-126.5 -76t-52 -126.5q0 -59 47 -94t108 -35q102 0 156 30l35 -137q-70 -27 -185 -26 q-145 0 -235 77.5t-90 223.5zM518 1110q0 53 40 94t93 41q55 0 96 -40t41 -95t-39.5 -96t-95 -41t-95.5 41t-40 96z" />
<glyph unicode="&#xc0;" horiz-adv-x="1239" d="M-12 0l692 1483h178l291 -1483h-199l-96 510h-465l-235 -510h-166zM442 1864h242l168 -301h-150zM453 647h374l-108 586z" />
<glyph unicode="&#xc1;" horiz-adv-x="1239" d="M-12 0l692 1483h178l291 -1483h-199l-96 510h-465l-235 -510h-166zM453 647h374l-108 586zM674 1565l205 301h264l-318 -301h-151z" />
<glyph unicode="&#xc2;" horiz-adv-x="1239" d="M-12 0l692 1483h178l291 -1483h-199l-96 510h-465l-235 -510h-166zM453 647h374l-108 586zM485 1563l242 307h162l164 -307h-133l-132 161l-170 -161h-133z" />
<glyph unicode="&#xc3;" horiz-adv-x="1239" d="M-12 0l692 1483h178l291 -1483h-199l-96 510h-465l-235 -510h-166zM453 647h374l-108 586zM455 1612q18 45 49 78q72 80 168 79q55 0 137 -38.5t115 -38.5q55 0 112 57l47 -51q-16 -39 -47 -76q-61 -74 -151 -74q-55 0 -139 39t-132 39q-53 0 -108 -55z" />
<glyph unicode="&#xc4;" horiz-adv-x="1239" d="M-12 0l692 1483h178l291 -1483h-199l-96 510h-465l-235 -510h-166zM453 647h374l-108 586zM492 1669q0 47 34.5 82t81.5 35q49 0 83 -34t34 -83q0 -47 -35 -82t-82 -35t-81.5 35t-34.5 82zM825 1669q0 47 35 82t82 35q49 0 83 -34t34 -83q0 -47 -35 -82t-82 -35t-82 35 t-35 82z" />
<glyph unicode="&#xc5;" horiz-adv-x="1239" d="M-12 0l692 1483h178l291 -1483h-199l-96 510h-465l-235 -510h-166zM453 647h374l-108 586zM575 1647q0 86 59.5 145t145.5 59t144.5 -59t58.5 -145t-59.5 -144.5t-145.5 -58.5t-144.5 58.5t-58.5 144.5zM680 1647q0 -41 28.5 -70t69.5 -29t70 29t29 70t-29 69.5t-70 28.5 t-69.5 -28.5t-28.5 -69.5z" />
<glyph unicode="&#xc6;" horiz-adv-x="1679" d="M-53 0l872 1352l-10 131h960l-20 -142h-600l-66 -510h494l-21 -139h-495l-72 -551h604l-20 -141h-787l68 506h-408l-329 -506h-170zM541 651h333l87 654z" />
<glyph unicode="&#xc7;" horiz-adv-x="1198" d="M92 610q0 229 87 429t268.5 332t418.5 132q269 1 404 -157l-115 -119q-115 135 -309 135q-137 0 -248 -71.5t-175.5 -186.5t-98 -246t-33.5 -260q0 -207 95 -336t296 -129q190 0 362 127l64 -139q-201 -141 -449 -141q-272 0 -419.5 177t-147.5 453zM451 -381 q12 0 42.5 11.5t67.5 45t37 80.5q0 66 -96 99l94 161h92l-61 -110q118 -37 118 -146q0 -100 -112 -157q-61 -33 -168 -49z" />
<glyph unicode="&#xc8;" horiz-adv-x="1024" d="M92 0l180 1350v133h842l-20 -142h-641l-66 -512h496l-21 -139h-495l-74 -549h641l-19 -141h-823zM403 1864h242l168 -301h-149z" />
<glyph unicode="&#xc9;" horiz-adv-x="1024" d="M92 0l180 1350v133h842l-20 -142h-641l-66 -512h496l-21 -139h-495l-74 -549h641l-19 -141h-823zM627 1565l204 301h265l-318 -301h-151z" />
<glyph unicode="&#xca;" horiz-adv-x="1024" d="M92 0l180 1350v133h842l-20 -142h-641l-66 -512h496l-21 -139h-495l-74 -549h641l-19 -141h-823zM438 1563l242 307h162l164 -307h-134l-131 161l-170 -161h-133z" />
<glyph unicode="&#xcb;" horiz-adv-x="1024" d="M92 0l180 1350v133h842l-20 -142h-641l-66 -512h496l-21 -139h-495l-74 -549h641l-19 -141h-823zM442 1669q0 47 35 82t82 35q49 0 83 -34t34 -83q0 -47 -35 -82t-82 -35t-82 35t-35 82zM776 1669q0 47 35 82t82 35q49 0 83 -34t34 -83q0 -47 -35 -82t-82 -35t-82 35 t-35 82z" />
<glyph unicode="&#xcc;" horiz-adv-x="514" d="M74 1866h241l168 -301h-149zM96 0l183 1350v133h202l-200 -1483h-185z" />
<glyph unicode="&#xcd;" horiz-adv-x="514" d="M96 0l183 1350v133h202l-200 -1483h-185zM285 1565l204 301h265l-318 -301h-151z" />
<glyph unicode="&#xce;" horiz-adv-x="514" d="M96 0l183 1350v133h202l-200 -1483h-185zM102 1563l242 307h162l164 -307h-133l-131 161l-170 -161h-134z" />
<glyph unicode="&#xcf;" horiz-adv-x="514" d="M96 0l183 1350v133h202l-200 -1483h-185zM106 1671q0 47 35 82t82 35q49 0 83 -34t34 -83q0 -47 -35 -82t-82 -35t-82 35t-35 82zM440 1671q0 47 35 82t82 35q49 0 83 -34t34 -83q0 -47 -35 -82t-82 -35t-82 35t-35 82z" />
<glyph unicode="&#xd0;" horiz-adv-x="1390" d="M25 692l20 131h158l71 527v133h500q266 0 400.5 -165t134.5 -429q0 -170 -46 -325.5t-135.5 -283.5t-234.5 -204t-330 -76h-471l92 692h-159zM297 141h278q137 0 245 71t170.5 183.5t94 237.5t31.5 248q0 201 -85 330.5t-275 129.5h-299l-70 -518h305l-20 -131h-301z" />
<glyph unicode="&#xd1;" horiz-adv-x="1380" d="M92 0l182 1350v133h234l536 -1108l152 1108h150l-201 -1493h-117l-616 1263l-168 -1253h-152zM535 1614q18 45 49 78q72 80 168 80q55 0 137 -39t115 -39q55 0 112 57l47 -51q-16 -39 -47 -76q-61 -74 -151 -74q-55 0 -139.5 39t-131.5 39q-53 0 -108 -55z" />
<glyph unicode="&#xd2;" horiz-adv-x="1449" d="M92 592q0 168 47 327.5t136.5 291.5t233.5 212t325 80q268 0 401 -168t133 -438q0 -174 -48 -335t-138 -293t-235.5 -210.5t-323.5 -78.5q-264 0 -397.5 172t-133.5 440zM287 596q0 -94 18.5 -175t58 -150.5t112.5 -109.5t173 -40q137 0 242.5 72.5t165 190.5t89.5 246 t30 257q0 205 -85 340t-276 135q-111 0 -202 -49t-150.5 -127t-100 -180.5t-58 -205t-17.5 -204.5zM541 1864h241l168 -301h-149z" />
<glyph unicode="&#xd3;" horiz-adv-x="1449" d="M92 592q0 168 47 327.5t136.5 291.5t233.5 212t325 80q268 0 401 -168t133 -438q0 -174 -48 -335t-138 -293t-235.5 -210.5t-323.5 -78.5q-264 0 -397.5 172t-133.5 440zM287 596q0 -94 18.5 -175t58 -150.5t112.5 -109.5t173 -40q137 0 242.5 72.5t165 190.5t89.5 246 t30 257q0 205 -85 340t-276 135q-111 0 -202 -49t-150.5 -127t-100 -180.5t-58 -205t-17.5 -204.5zM768 1563l205 301h264l-317 -301h-152z" />
<glyph unicode="&#xd4;" horiz-adv-x="1449" d="M92 592q0 168 47 327.5t136.5 291.5t233.5 212t325 80q268 0 401 -168t133 -438q0 -174 -48 -335t-138 -293t-235.5 -210.5t-323.5 -78.5q-264 0 -397.5 172t-133.5 440zM287 596q0 -94 18.5 -175t58 -150.5t112.5 -109.5t173 -40q137 0 242.5 72.5t165 190.5t89.5 246 t30 257q0 205 -85 340t-276 135q-111 0 -202 -49t-150.5 -127t-100 -180.5t-58 -205t-17.5 -204.5zM578 1563l241 307h162l164 -307h-133l-131 161l-170 -161h-133z" />
<glyph unicode="&#xd5;" horiz-adv-x="1449" d="M92 592q0 168 47 327.5t136.5 291.5t233.5 212t325 80q268 0 401 -168t133 -438q0 -174 -48 -335t-138 -293t-235.5 -210.5t-323.5 -78.5q-264 0 -397.5 172t-133.5 440zM287 596q0 -94 18.5 -175t58 -150.5t112.5 -109.5t173 -40q137 0 242.5 72.5t165 190.5t89.5 246 t30 257q0 205 -85 340t-276 135q-111 0 -202 -49t-150.5 -127t-100 -180.5t-58 -205t-17.5 -204.5zM549 1616q18 45 49 78q72 80 168 80q55 0 137 -39t115 -39q55 0 112 57l48 -51q-16 -39 -48 -76q-61 -74 -151 -74q-55 0 -139 39t-131 39q-53 0 -109 -55z" />
<glyph unicode="&#xd6;" horiz-adv-x="1449" d="M92 592q0 168 47 327.5t136.5 291.5t233.5 212t325 80q268 0 401 -168t133 -438q0 -174 -48 -335t-138 -293t-235.5 -210.5t-323.5 -78.5q-264 0 -397.5 172t-133.5 440zM287 596q0 -94 18.5 -175t58 -150.5t112.5 -109.5t173 -40q137 0 242.5 72.5t165 190.5t89.5 246 t30 257q0 205 -85 340t-276 135q-111 0 -202 -49t-150.5 -127t-100 -180.5t-58 -205t-17.5 -204.5zM563 1671q0 47 35 82t82 35q49 0 83 -34t34 -83q0 -47 -35 -82t-82 -35t-82 35t-35 82zM897 1671q0 47 35 82t82 35q49 0 82.5 -34t33.5 -83q0 -47 -34.5 -82t-81.5 -35 t-82 35t-35 82z" />
<glyph unicode="&#xd7;" horiz-adv-x="1093" d="M145 193l314 311l-314 311l91 90l311 -311l311 311l90 -90l-313 -311l313 -311l-90 -91l-311 312l-311 -312z" />
<glyph unicode="&#xd8;" horiz-adv-x="1509" d="M78 -47l162 209q-123 162 -123 416q0 131 27.5 261t88 249.5t145.5 211t208 146.5t266 55q186 0 326 -94l116 154l99 -64l-131 -172q133 -164 133 -432q0 -168 -48.5 -327.5t-138.5 -294t-236.5 -216.5t-324.5 -82q-199 0 -328 107l-147 -195zM311 582q0 -152 45 -258 l717 948q-94 88 -233 88q-137 0 -244 -75t-166 -194.5t-89 -249.5t-30 -259zM422 217q96 -104 252 -104q137 0 243.5 73.5t166 191.5t89 248t29.5 261q0 164 -55 282z" />
<glyph unicode="&#xd9;" horiz-adv-x="1306" d="M94 393q0 55 8 107l115 852v131h205l-133 -985q-6 -49 -6 -88q0 -133 69.5 -211t220.5 -78q184 0 291 108.5t131 298.5l129 955h152l-131 -957q-35 -248 -178.5 -397t-417.5 -149q-238 0 -346.5 113.5t-108.5 299.5zM469 1864h242l168 -301h-150z" />
<glyph unicode="&#xda;" horiz-adv-x="1306" d="M94 393q0 55 8 107l115 852v131h205l-133 -985q-6 -49 -6 -88q0 -133 69.5 -211t220.5 -78q184 0 291 108.5t131 298.5l129 955h152l-131 -957q-35 -248 -178.5 -397t-417.5 -149q-238 0 -346.5 113.5t-108.5 299.5zM713 1563l205 301h264l-318 -301h-151z" />
<glyph unicode="&#xdb;" horiz-adv-x="1306" d="M94 393q0 55 8 107l115 852v131h205l-133 -985q-6 -49 -6 -88q0 -133 69.5 -211t220.5 -78q184 0 291 108.5t131 298.5l129 955h152l-131 -957q-35 -248 -178.5 -397t-417.5 -149q-238 0 -346.5 113.5t-108.5 299.5zM496 1563l241 307h162l164 -307h-133l-131 161 l-170 -161h-133z" />
<glyph unicode="&#xdc;" horiz-adv-x="1306" d="M94 393q0 55 8 107l115 852v131h205l-133 -985q-6 -49 -6 -88q0 -133 69.5 -211t220.5 -78q184 0 291 108.5t131 298.5l129 955h152l-131 -957q-35 -248 -178.5 -397t-417.5 -149q-238 0 -346.5 113.5t-108.5 299.5zM500 1671q0 47 34.5 82t81.5 35q49 0 83 -34t34 -83 q0 -47 -34.5 -82t-82 -35t-82 35t-34.5 82zM834 1671q0 47 34.5 82t81.5 35q49 0 83 -34t34 -83q0 -47 -35 -82t-82 -35t-81.5 35t-34.5 82z" />
<glyph unicode="&#xdd;" horiz-adv-x="976" d="M86 1483h211l250 -574l383 574h172l-508 -750l-98 -733h-187l99 735zM539 1563l204 301h265l-318 -301h-151z" />
<glyph unicode="&#xde;" horiz-adv-x="1103" d="M94 0l182 1350v133h207l-30 -234h196q195 0 314.5 -89t119.5 -281q0 -238 -150.5 -382.5t-391.5 -144.5h-213l-47 -352h-187zM348 489h205q154 0 246 106.5t92 260.5q0 123 -67.5 187.5t-190.5 64.5h-203z" />
<glyph unicode="&#xdf;" horiz-adv-x="1107" d="M-317 -406l81 117q35 -25 49.5 -32t37 -13t57.5 -6q152 0 182 234l133 980h-147l16 130h148q16 102 47.5 187t85 156.5t137.5 112.5t190 41q127 0 209 -72.5t82 -199.5q0 -203 -176 -314q-2 0 -119 -63q-49 -20 -49 -39q0 -20 51 -53q12 -8 54.5 -35t66.5 -43 q182 -135 182 -311q0 -188 -119.5 -293t-308.5 -105q-113 0 -200 43l49 119q74 -29 153 -29q109 0 178.5 71t69.5 181q0 76 -51 140.5t-112.5 103.5t-112.5 93.5t-51 109.5q0 29 20.5 56.5t34.5 37.5t51 35q10 6 30.5 20.5t29.5 18.5q158 104 157 248q0 68 -33.5 105.5 t-99.5 37.5q-127 0 -194.5 -106.5t-88.5 -258.5l-153 -1124q-47 -346 -338 -346q-133 0 -229 65z" />
<glyph unicode="&#xe0;" d="M76 365q0 152 64.5 302t191.5 256.5t282 106.5q150 0 224 -96l43 80h90l-115 -778q-4 -29 -4 -43q0 -82 68 -82q32 0 81 16l23 -102q-90 -47 -154 -48q-72 0 -115.5 49.5t-45.5 125.5h-9q-115 -178 -303 -179q-158 0 -239.5 110t-81.5 282zM266 356q0 -102 38 -179 t126 -77q90 0 158.5 79t107 192t58.5 258l28 196q-68 78 -161 78q-115 0 -200 -97t-120 -218t-35 -232zM334 1483h241l168 -301h-149z" />
<glyph unicode="&#xe1;" d="M76 365q0 152 64.5 302t191.5 256.5t282 106.5q150 0 224 -96l43 80h90l-115 -778q-4 -29 -4 -43q0 -82 68 -82q32 0 81 16l23 -102q-90 -47 -154 -48q-72 0 -115.5 49.5t-45.5 125.5h-9q-115 -178 -303 -179q-158 0 -239.5 110t-81.5 282zM266 356q0 -102 38 -179 t126 -77q90 0 158.5 79t107 192t58.5 258l28 196q-68 78 -161 78q-115 0 -200 -97t-120 -218t-35 -232zM557 1182l205 301h264l-317 -301h-152z" />
<glyph unicode="&#xe2;" d="M76 365q0 152 64.5 302t191.5 256.5t282 106.5q150 0 224 -96l43 80h90l-115 -778q-4 -29 -4 -43q0 -82 68 -82q32 0 81 16l23 -102q-90 -47 -154 -48q-72 0 -115.5 49.5t-45.5 125.5h-9q-115 -178 -303 -179q-158 0 -239.5 110t-81.5 282zM266 356q0 -102 38 -179 t126 -77q90 0 158.5 79t107 192t58.5 258l28 196q-68 78 -161 78q-115 0 -200 -97t-120 -218t-35 -232zM371 1176l241 307h162l164 -307h-133l-131 161l-170 -161h-133z" />
<glyph unicode="&#xe3;" d="M76 365q0 152 64.5 302t191.5 256.5t282 106.5q150 0 224 -96l43 80h90l-115 -778q-4 -29 -4 -43q0 -82 68 -82q32 0 81 16l23 -102q-90 -47 -154 -48q-72 0 -115.5 49.5t-45.5 125.5h-9q-115 -178 -303 -179q-158 0 -239.5 110t-81.5 282zM266 356q0 -102 38 -179 t126 -77q90 0 158.5 79t107 192t58.5 258l28 196q-68 78 -161 78q-115 0 -200 -97t-120 -218t-35 -232zM340 1323q18 45 49 78q72 80 168 80q55 0 137 -39t115 -39q56 0 113 57l47 -51q-16 -39 -47 -76q-61 -74 -152 -73q-55 0 -139 38.5t-131 38.5q-53 0 -109 -55z" />
<glyph unicode="&#xe4;" d="M76 365q0 152 64.5 302t191.5 256.5t282 106.5q150 0 224 -96l43 80h90l-115 -778q-4 -29 -4 -43q0 -82 68 -82q32 0 81 16l23 -102q-90 -47 -154 -48q-72 0 -115.5 49.5t-45.5 125.5h-9q-115 -178 -303 -179q-158 0 -239.5 110t-81.5 282zM266 356q0 -102 38 -179 t126 -77q90 0 158.5 79t107 192t58.5 258l28 196q-68 78 -161 78q-115 0 -200 -97t-120 -218t-35 -232zM391 1374q0 47 35 82t82 35q49 0 83 -34t34 -83q0 -47 -35 -82t-82 -35t-82 35t-35 82zM725 1374q0 47 35 82t82 35q49 0 82.5 -34t33.5 -83q0 -47 -34.5 -82t-81.5 -35 t-82 35t-35 82z" />
<glyph unicode="&#xe5;" d="M76 365q0 152 64.5 302t191.5 256.5t282 106.5q150 0 224 -96l43 80h90l-115 -778q-4 -29 -4 -43q0 -82 68 -82q32 0 81 16l23 -102q-90 -47 -154 -48q-72 0 -115.5 49.5t-45.5 125.5h-9q-115 -178 -303 -179q-158 0 -239.5 110t-81.5 282zM266 356q0 -102 38 -179 t126 -77q90 0 158.5 79t107 192t58.5 258l28 196q-68 78 -161 78q-115 0 -200 -97t-120 -218t-35 -232zM479 1331q0 86 59.5 145.5t145.5 59.5t144.5 -59.5t58.5 -145.5t-59.5 -144.5t-145.5 -58.5t-144.5 58.5t-58.5 144.5zM584 1331q0 -41 28.5 -69.5t69.5 -28.5 t69.5 28.5t28.5 69.5t-28.5 70t-69.5 29t-69.5 -29t-28.5 -70z" />
<glyph unicode="&#xe6;" horiz-adv-x="1462" d="M74 379q0 141 63.5 290.5t188.5 257t276 107.5q147 0 227 -104q127 104 297 104q113 0 186.5 -53t73.5 -164q0 -186 -198 -307q-150 -90 -426 -94v-10q0 -123 61.5 -205t177.5 -82q154 0 285 92l60 -121q-170 -115 -355 -115q-197 0 -311 136q-117 -137 -285 -138 q-158 0 -239.5 114t-81.5 292zM264 365q0 -100 37 -181.5t121 -81.5q117 0 199 107q-35 88 -35 186q0 267 162 457q-68 55 -154 55q-78 0 -143.5 -58t-104.5 -145.5t-60.5 -177.5t-21.5 -161zM772 535q55 0 123 12t143.5 37.5t125.5 80t50 128.5v8q-2 106 -114 106 q-117 0 -218.5 -124t-109.5 -248z" />
<glyph unicode="&#xe7;" horiz-adv-x="862" d="M74 403q0 256 146.5 441.5t387.5 185.5q156 0 273 -104l-103 -113q-90 90 -207 90q-102 0 -178 -82t-108.5 -186.5t-32.5 -204.5q0 -127 56.5 -221t170.5 -94q121 0 248 90l57 -131q-102 -55 -168.5 -78t-162.5 -23q-182 0 -280.5 121t-98.5 309zM283 -381 q12 0 42.5 11.5t67.5 45t37 80.5q0 66 -96 99l94 161h92l-61 -110q119 -37 119 -146q0 -100 -113 -157q-61 -33 -168 -49z" />
<glyph unicode="&#xe8;" horiz-adv-x="950" d="M76 393q0 246 149.5 441.5t388.5 195.5q115 0 189 -53t74 -164q0 -188 -201 -305q-154 -90 -426 -94v-11q0 -121 61.5 -203.5t177.5 -82.5q150 0 285 92l60 -121q-158 -115 -355 -115q-186 0 -294.5 117t-108.5 303zM260 532q193 0 303 68q55 35 98.5 89.5t43.5 109.5 q0 104 -117 104q-121 0 -217.5 -120.5t-110.5 -250.5zM287 1483h241l168 -301h-149z" />
<glyph unicode="&#xe9;" horiz-adv-x="950" d="M76 393q0 246 149.5 441.5t388.5 195.5q115 0 189 -53t74 -164q0 -188 -201 -305q-154 -90 -426 -94v-11q0 -121 61.5 -203.5t177.5 -82.5q150 0 285 92l60 -121q-158 -115 -355 -115q-186 0 -294.5 117t-108.5 303zM260 532q193 0 303 68q55 35 98.5 89.5t43.5 109.5 q0 104 -117 104q-121 0 -217.5 -120.5t-110.5 -250.5zM522 1182l205 301h264l-317 -301h-152z" />
<glyph unicode="&#xea;" horiz-adv-x="950" d="M76 393q0 246 149.5 441.5t388.5 195.5q115 0 189 -53t74 -164q0 -188 -201 -305q-154 -90 -426 -94v-11q0 -121 61.5 -203.5t177.5 -82.5q150 0 285 92l60 -121q-158 -115 -355 -115q-186 0 -294.5 117t-108.5 303zM260 532q193 0 303 68q55 35 98.5 89.5t43.5 109.5 q0 104 -117 104q-121 0 -217.5 -120.5t-110.5 -250.5zM299 1176l242 307h161l164 -307h-133l-131 161l-170 -161h-133z" />
<glyph unicode="&#xeb;" horiz-adv-x="950" d="M76 393q0 246 149.5 441.5t388.5 195.5q115 0 189 -53t74 -164q0 -188 -201 -305q-154 -90 -426 -94v-11q0 -121 61.5 -203.5t177.5 -82.5q150 0 285 92l60 -121q-158 -115 -355 -115q-186 0 -294.5 117t-108.5 303zM260 532q193 0 303 68q55 35 98.5 89.5t43.5 109.5 q0 104 -117 104q-121 0 -217.5 -120.5t-110.5 -250.5zM299 1374q0 47 35 82t82 35q49 0 82.5 -34t33.5 -83q0 -47 -34.5 -82t-81.5 -35t-82 35t-35 82zM633 1374q0 47 34.5 82t82.5 35q49 0 82.5 -34t33.5 -83q0 -47 -34.5 -82t-82 -35t-82 35t-34.5 82z" />
<glyph unicode="&#xec;" horiz-adv-x="464" d="M-23 1483h242l168 -301h-149zM82 0l119 887v117h180l-119 -885v-119h-180z" />
<glyph unicode="&#xed;" horiz-adv-x="464" d="M82 0l119 887v117h180l-119 -885v-119h-180zM215 1182l205 301h264l-317 -301h-152z" />
<glyph unicode="&#xee;" horiz-adv-x="464" d="M20 1176l242 307h162l164 -307h-133l-131 161l-170 -161h-134zM82 0l119 887v117h180l-119 -885v-119h-180z" />
<glyph unicode="&#xef;" horiz-adv-x="464" d="M23 1374q0 47 34.5 82t81.5 35q49 0 83 -34t34 -83q0 -47 -35 -82t-82 -35t-81.5 35t-34.5 82zM82 0l119 887v117h180l-119 -885v-119h-180zM356 1374q0 47 35 82t82 35q49 0 83 -34t34 -83q0 -47 -35 -82t-82 -35t-82 35t-35 82z" />
<glyph unicode="&#xf0;" horiz-adv-x="1040" d="M76 408q0 248 145.5 437t368.5 189q66 0 129 -26q-59 162 -148 303l-221 -119l-51 82l221 119q-49 70 -96 120l117 68q78 -90 100 -123l225 121l43 -86l-211 -115q266 -395 267 -760q0 -164 -60.5 -308t-180.5 -237t-273 -93q-178 0 -276.5 120.5t-98.5 307.5zM248 410 q0 -129 51 -218.5t166 -89.5q96 0 169 70t105.5 155t44.5 179q6 43 7 94q0 131 -50.5 221t-167.5 90q-88 0 -156.5 -58t-102 -143t-50 -163t-16.5 -137z" />
<glyph unicode="&#xf1;" horiz-adv-x="1011" d="M84 0l96 717q8 51 8 106q0 74 -16 135q-12 37 -16 46l180 20q14 -55 18 -147q176 154 322 153q254 0 254 -266q0 -41 -6 -90l-74 -555v-119h-180l84 621q10 57 10 110q0 152 -133 152q-117 0 -283 -135l-100 -748h-164zM315 1333q18 45 50 78q72 80 167 80 q55 0 137.5 -39t114.5 -39q56 0 113 57l47 -51q-16 -39 -47 -76q-61 -74 -152 -73q-55 0 -139 39t-131 39q-53 0 -108 -56z" />
<glyph unicode="&#xf2;" horiz-adv-x="1040" d="M76 403q0 160 58.5 300.5t178 233.5t277.5 93q184 0 280.5 -123t96.5 -305q0 -160 -59.5 -301t-180.5 -234.5t-276 -93.5q-182 0 -278.5 123t-96.5 307zM250 414q0 -121 53 -217.5t162 -96.5q84 0 149.5 49.5t102.5 127t56.5 161.5t19.5 162q0 123 -52.5 213t-165.5 90 q-106 0 -184 -85t-109.5 -191.5t-31.5 -212.5zM276 1483h242l168 -301h-149z" />
<glyph unicode="&#xf3;" horiz-adv-x="1040" d="M76 403q0 160 58.5 300.5t178 233.5t277.5 93q184 0 280.5 -123t96.5 -305q0 -160 -59.5 -301t-180.5 -234.5t-276 -93.5q-182 0 -278.5 123t-96.5 307zM250 414q0 -121 53 -217.5t162 -96.5q84 0 149.5 49.5t102.5 127t56.5 161.5t19.5 162q0 123 -52.5 213t-165.5 90 q-106 0 -184 -85t-109.5 -191.5t-31.5 -212.5zM520 1182l205 301h264l-317 -301h-152z" />
<glyph unicode="&#xf4;" horiz-adv-x="1040" d="M76 403q0 160 58.5 300.5t178 233.5t277.5 93q184 0 280.5 -123t96.5 -305q0 -160 -59.5 -301t-180.5 -234.5t-276 -93.5q-182 0 -278.5 123t-96.5 307zM250 414q0 -121 53 -217.5t162 -96.5q84 0 149.5 49.5t102.5 127t56.5 161.5t19.5 162q0 123 -52.5 213t-165.5 90 q-106 0 -184 -85t-109.5 -191.5t-31.5 -212.5zM309 1176l242 307h162l164 -307h-134l-131 161l-170 -161h-133z" />
<glyph unicode="&#xf5;" horiz-adv-x="1040" d="M76 403q0 160 58.5 300.5t178 233.5t277.5 93q184 0 280.5 -123t96.5 -305q0 -160 -59.5 -301t-180.5 -234.5t-276 -93.5q-182 0 -278.5 123t-96.5 307zM250 414q0 -121 53 -217.5t162 -96.5q84 0 149.5 49.5t102.5 127t56.5 161.5t19.5 162q0 123 -52.5 213t-165.5 90 q-106 0 -184 -85t-109.5 -191.5t-31.5 -212.5zM301 1329q18 45 49 78q72 80 168 80q55 0 137 -39t115 -39q56 0 113 57l47 -51q-16 -39 -47 -76q-61 -74 -152 -73q-55 0 -139 38.5t-131 38.5q-53 0 -109 -55z" />
<glyph unicode="&#xf6;" horiz-adv-x="1040" d="M76 403q0 160 58.5 300.5t178 233.5t277.5 93q184 0 280.5 -123t96.5 -305q0 -160 -59.5 -301t-180.5 -234.5t-276 -93.5q-182 0 -278.5 123t-96.5 307zM250 414q0 -121 53 -217.5t162 -96.5q84 0 149.5 49.5t102.5 127t56.5 161.5t19.5 162q0 123 -52.5 213t-165.5 90 q-106 0 -184 -85t-109.5 -191.5t-31.5 -212.5zM354 1370q0 47 35 82t82 35q49 0 83 -34t34 -83q0 -47 -35 -82t-82 -35t-82 35t-35 82zM688 1370q0 47 35 82t82 35q49 0 83 -34t34 -83q0 -47 -35 -82t-82 -35t-82 35t-35 82z" />
<glyph unicode="&#xf7;" horiz-adv-x="1290" d="M139 430v135h1022v-135h-1022zM522 178q0 53 37 88t88 35q53 0 89 -35t36 -88t-36 -88t-89 -35t-89 35t-36 88zM522 819q0 53 36 89t89 36t89 -36t36 -89t-37 -88t-88 -35t-88 35t-37 88z" />
<glyph unicode="&#xf8;" horiz-adv-x="1136" d="M53 -76l144 187q-88 113 -88 290q0 150 58 292.5t181 242.5t279 100q119 0 202 -53l107 143l92 -57l-121 -162q92 -115 92 -295q0 -152 -57 -295t-179 -242.5t-282 -99.5q-131 0 -209 62l-133 -174zM279 418q-1 -109 24 -156l438 598q-53 47 -129 47q-106 0 -186 -83 t-113.5 -191.5t-33.5 -214.5zM360 162q51 -57 134 -58q111 0 190.5 86t112 196.5t32.5 219.5q0 88 -22 156z" />
<glyph unicode="&#xf9;" horiz-adv-x="1044" d="M82 244q0 39 6 82l78 561v117h178l-88 -654q-6 -47 -6 -84q0 -166 137 -166q45 0 90 21.5t91 72t83 146.5t58 231l45 314v119h180l-105 -756q-4 -45 -4 -53q0 -86 58 -86q27 0 57 10q11 2 27 10l22 -106q-31 -16 -53 -25q-49 -23 -100 -23q-61 0 -111.5 45.5t-50.5 129.5 h-8q-104 -176 -322 -177q-133 0 -197.5 72t-64.5 199zM229 1483h242l168 -301h-150z" />
<glyph unicode="&#xfa;" horiz-adv-x="1044" d="M82 244q0 39 6 82l78 561v117h178l-88 -654q-6 -47 -6 -84q0 -166 137 -166q45 0 90 21.5t91 72t83 146.5t58 231l45 314v119h180l-105 -756q-4 -45 -4 -53q0 -86 58 -86q27 0 57 10q11 2 27 10l22 -106q-31 -16 -53 -25q-49 -23 -100 -23q-61 0 -111.5 45.5t-50.5 129.5 h-8q-104 -176 -322 -177q-133 0 -197.5 72t-64.5 199zM485 1182l205 301h264l-317 -301h-152z" />
<glyph unicode="&#xfb;" horiz-adv-x="1044" d="M82 244q0 39 6 82l78 561v117h178l-88 -654q-6 -47 -6 -84q0 -166 137 -166q45 0 90 21.5t91 72t83 146.5t58 231l45 314v119h180l-105 -756q-4 -45 -4 -53q0 -86 58 -86q27 0 57 10q11 2 27 10l22 -106q-31 -16 -53 -25q-49 -23 -100 -23q-61 0 -111.5 45.5t-50.5 129.5 h-8q-104 -176 -322 -177q-133 0 -197.5 72t-64.5 199zM274 1176l242 307h162l164 -307h-133l-131 161l-170 -161h-134z" />
<glyph unicode="&#xfc;" horiz-adv-x="1044" d="M82 244q0 39 6 82l78 561v117h178l-88 -654q-6 -47 -6 -84q0 -166 137 -166q45 0 90 21.5t91 72t83 146.5t58 231l45 314v119h180l-105 -756q-4 -45 -4 -53q0 -86 58 -86q27 0 57 10q11 2 27 10l22 -106q-31 -16 -53 -25q-49 -23 -100 -23q-61 0 -111.5 45.5t-50.5 129.5 h-8q-104 -176 -322 -177q-133 0 -197.5 72t-64.5 199zM303 1374q0 47 35 82t82 35q49 0 83 -34t34 -83q0 -47 -35 -82t-82 -35t-82 35t-35 82zM637 1374q0 47 35 82t82 35q49 0 82.5 -34t33.5 -83q0 -47 -34.5 -82t-81.5 -35t-82 35t-35 82z" />
<glyph unicode="&#xfd;" horiz-adv-x="837" d="M-311 -416l78 123q92 -43 149 -43q240 0 360 275l29 67l-213 998h174l150 -762l352 762h156l-508 -1108q-170 -367 -510 -367q-123 0 -217 55zM461 1182l205 301h264l-318 -301h-151z" />
<glyph unicode="&#xfe;" horiz-adv-x="1060" d="M20 -457l259 1905v117h180l-92 -680q113 145 290 145q158 0 241 -113.5t83 -285.5q0 -250 -148.5 -454t-375.5 -204q-55 0 -114.5 21.5t-88.5 50.5l-51 -383v-119h-183zM274 180q31 -35 84.5 -57.5t104.5 -22.5q104 0 182 91.5t112 211t34 240.5q0 104 -39 182t-136 78 q-80 0 -141 -56t-96 -149.5t-53.5 -170t-28.5 -162.5q-6 -37 -13.5 -101.5t-9.5 -83.5z" />
<glyph unicode="&#xff;" horiz-adv-x="837" d="M-311 -416l78 123q92 -43 149 -43q240 0 360 275l29 67l-213 998h174l150 -762l352 762h156l-508 -1108q-170 -367 -510 -367q-123 0 -217 55zM254 1372q0 47 35 82t82 35q49 0 82.5 -34t33.5 -83q0 -47 -34.5 -82t-81.5 -35t-82 35t-35 82zM588 1372q0 47 34.5 82 t82.5 35q49 0 82.5 -34t33.5 -83q0 -47 -34.5 -82t-82 -35t-82 35t-34.5 82z" />
<glyph unicode="&#x152;" horiz-adv-x="2002" d="M92 592q0 168 47 327.5t136.5 291.5t233.5 212t325 80q264 0 407 -176l21 156h825l-21 -142h-641l-65 -512h495l-20 -139h-496l-73 -549h641l-19 -141h-823l20 158q-190 -178 -462 -178q-264 0 -397.5 172t-133.5 440zM287 596q0 -94 18.5 -175t58 -150.5t112.5 -109.5 t173 -40q137 0 242.5 72.5t165 190.5t89.5 246t30 257q0 205 -85 340t-276 135q-111 0 -202 -49t-150.5 -127t-100 -180.5t-58 -205t-17.5 -204.5z" />
<glyph unicode="&#x153;" horiz-adv-x="1640" d="M74 403q0 152 59.5 293.5t180 237.5t276.5 96q229 0 325 -196q154 197 390 196q115 0 187.5 -53t72.5 -164q0 -193 -199 -307q-154 -90 -426 -94v-11q0 -121 61.5 -203.5t178.5 -82.5q150 0 284 92l60 -121q-158 -115 -355 -115q-244 0 -348 191q-141 -190 -370 -191 q-180 0 -278.5 124t-98.5 308zM250 414q0 -119 52 -216.5t162.5 -97.5t188.5 88t108 197t30 215q0 121 -51.5 212t-164.5 91q-82 0 -147.5 -49t-102 -126t-56 -158t-19.5 -156zM952 530q199 0 321 84.5t122 190.5q0 39 -30 68.5t-83 29.5q-98 0 -178 -76.5t-116 -160.5 t-36 -136z" />
<glyph unicode="&#x178;" horiz-adv-x="976" d="M86 1483h211l250 -574l383 574h172l-508 -750l-98 -733h-187l99 735zM340 1671q0 47 35 82t82 35q49 0 82.5 -34t33.5 -83q0 -47 -34.5 -82t-81.5 -35t-82 35t-35 82zM674 1671q0 47 34.5 82t82.5 35q49 0 82.5 -34t33.5 -83q0 -47 -34.5 -82t-82 -35t-82 35t-34.5 82z " />
<glyph unicode="&#x2c6;" horiz-adv-x="520" d="M-23 1176l242 307h162l164 -307h-133l-131 161l-170 -161h-134z" />
<glyph unicode="&#x2dc;" horiz-adv-x="557" d="M-37 1241q18 45 49 78q72 80 168 80q55 0 137 -39t115 -39q56 0 113 57l47 -51q-16 -39 -47 -76q-61 -74 -152 -73q-55 0 -139 38.5t-131 38.5q-53 0 -109 -55z" />
<glyph unicode="&#x2000;" horiz-adv-x="950" />
<glyph unicode="&#x2001;" horiz-adv-x="1901" />
<glyph unicode="&#x2002;" horiz-adv-x="950" />
<glyph unicode="&#x2003;" horiz-adv-x="1901" />
<glyph unicode="&#x2004;" horiz-adv-x="633" />
<glyph unicode="&#x2005;" horiz-adv-x="475" />
<glyph unicode="&#x2006;" horiz-adv-x="316" />
<glyph unicode="&#x2007;" horiz-adv-x="316" />
<glyph unicode="&#x2008;" horiz-adv-x="237" />
<glyph unicode="&#x2009;" horiz-adv-x="380" />
<glyph unicode="&#x200a;" horiz-adv-x="105" />
<glyph unicode="&#x2010;" horiz-adv-x="663" d="M70 455l22 145h494l-23 -145h-493z" />
<glyph unicode="&#x2011;" horiz-adv-x="663" d="M70 455l22 145h494l-23 -145h-493z" />
<glyph unicode="&#x2012;" horiz-adv-x="663" d="M70 455l22 145h494l-23 -145h-493z" />
<glyph unicode="&#x2013;" horiz-adv-x="1128" d="M57 467l19 117h995l-18 -117h-996z" />
<glyph unicode="&#x2014;" horiz-adv-x="1845" d="M57 467l19 117h1712l-19 -117h-1712z" />
<glyph unicode="&#x2018;" horiz-adv-x="391" d="M92 1128q0 184 252 359l62 -68l-15 -12q-4 -2 -16.5 -14.5t-18.5 -17.5t-17 -16t-16.5 -17.5t-13.5 -17.5t-12 -19.5t-7 -17.5t-3 -19q0 -14 41 -59.5t41 -88.5q0 -63 -41 -100t-101 -37q-63 0 -99 41t-36 104z" />
<glyph unicode="&#x2019;" horiz-adv-x="534" d="M129 1049q8 8 33.5 31.5t41 39t30 38t14.5 42.5q0 14 -41 59.5t-41 88.5q0 63 41 99t100 36q63 0 99 -41.5t36 -102.5q0 -188 -252 -358z" />
<glyph unicode="&#x201a;" horiz-adv-x="516" d="M37 -188q8 8 33.5 30.5t40 38t29 39t14.5 43.5q0 14 -41 59.5t-41 88.5q0 63 42 99t101 36q63 0 99 -41.5t36 -102.5q0 -186 -254 -358z" />
<glyph unicode="&#x201c;" horiz-adv-x="780" d="M92 1128q0 184 252 359l62 -68l-15 -12q-4 -2 -16.5 -14.5t-18.5 -17.5t-17 -16t-16.5 -17.5t-13.5 -17.5t-12 -19.5t-7 -17.5t-3 -19q0 -14 41 -59.5t41 -88.5q0 -63 -41 -100t-101 -37q-66 0 -100.5 41t-34.5 104zM481 1128q0 184 252 359l62 -68l-15 -12 q-4 -2 -16 -14.5t-18.5 -17.5t-17.5 -16t-16 -17.5t-13.5 -17.5t-12.5 -19.5t-7 -17.5t-3 -19q0 -14 41 -59.5t41 -88.5q0 -63 -41 -99t-101 -36q-63 0 -99 41t-36 102z" />
<glyph unicode="&#x201d;" horiz-adv-x="923" d="M129 1049q8 8 33.5 31.5t41 39t30 38t14.5 42.5q0 14 -41 59.5t-41 88.5q0 63 41 100t100 37q63 0 99 -41.5t36 -104.5q0 -188 -252 -358zM518 1049q8 8 34 30.5t40 38t28.5 39t14.5 43.5q0 14 -41 59.5t-41 88.5q0 63 42 100t101 37q63 0 99 -41.5t36 -104.5 q0 -186 -253 -358z" />
<glyph unicode="&#x201e;" horiz-adv-x="901" d="M35 -188l12 10q106 86 107 141q0 14 -41 59.5t-41 88.5q0 63 41 100t100 37q63 0 99 -41.5t36 -104.5q0 -188 -252 -358zM424 -188l12 10q106 86 107 141q0 14 -41 59.5t-41 88.5q0 63 41 100t100 37q63 0 99 -41.5t36 -104.5q0 -188 -252 -358z" />
<glyph unicode="&#x2022;" horiz-adv-x="829" d="M94 731q0 131 93.5 225.5t226.5 94.5q135 0 228 -92.5t93 -227.5q0 -131 -92 -225t-225 -94q-135 0 -229.5 94t-94.5 225z" />
<glyph unicode="&#x2026;" horiz-adv-x="1308" d="M72 110.5q0 55.5 40 95.5t95 40t96 -40t41 -95q0 -57 -40 -97.5t-97 -40.5q-55 0 -95 41t-40 96.5zM471 110.5q0 55.5 40 95.5t95.5 40t96 -40t40.5 -95q0 -57 -39.5 -97.5t-97.5 -40.5q-55 0 -95 41t-40 96.5zM872 110.5q0 55.5 40 95.5t95.5 40t96.5 -40t41 -95 q0 -57 -40 -97.5t-97 -40.5q-55 0 -95.5 41t-40.5 96.5z" />
<glyph unicode="&#x202f;" horiz-adv-x="380" />
<glyph unicode="&#x2039;" horiz-adv-x="622" d="M115 674l297 330l125 -23l-238 -307l242 -309l-121 -19z" />
<glyph unicode="&#x203a;" horiz-adv-x="634" d="M111 360l241 310l-237 307l125 22l297 -329l-306 -328z" />
<glyph unicode="&#x205f;" horiz-adv-x="475" />
<glyph unicode="&#x20ac;" horiz-adv-x="983" d="M47 348l14 96h140q6 61 18 127h-141l14 95h154q59 164 191 265t304 101q152 0 267 -104l-101 -117q-57 53 -99 71.5t-108 18.5q-88 0 -163.5 -69.5t-116.5 -165.5h401l-14 -95h-416q-10 -57 -14 -127h416l-15 -96h-395q14 -94 72.5 -163.5t146.5 -69.5q121 0 246 90 l57 -131q-102 -55 -169.5 -78t-160.5 -23q-164 0 -263 105.5t-111 269.5h-154z" />
<glyph unicode="&#x2122;" horiz-adv-x="1187" d="M154 1407l10 76h395l-10 -76h-148l-53 -383h-102l53 383h-145zM541 1022l63 461h135l72 -297l154 297h131l-64 -461h-100l39 281q0 8 4 28q-27 -55 -164 -309h-61q-18 66 -46 179.5t-34 137.5q0 -12 -2 -16l-41 -301h-86z" />
<glyph unicode="&#xe000;" horiz-adv-x="1004" d="M0 1005h1005v-1005h-1005v1005z" />
<glyph unicode="&#xfb01;" horiz-adv-x="1024" d="M-317 -408l81 117q45 -31 70 -40t74 -9q152 0 182 234l133 980h-145l18 130h148q20 139 46.5 232t75 177t130.5 125t198 41q123 0 206 -59t106 -172l-158 -48q-8 72 -50 110t-110 38q-98 0 -170 -85t-104 -312q0 -8 -2 -15q-4 -20 -4 -32h534l-115 -877v-127h-182 l117 874h-375l-137 -1001q-23 -164 -111 -254t-227 -90q-135 0 -229 63z" />
<glyph unicode="&#xfb02;" horiz-adv-x="1062" d="M-315 -408l82 119q35 -25 47 -32t35.5 -13t60.5 -6q152 0 182 234l131 980h-145l18 130h148q14 100 28.5 168.5t48 152.5t78.5 135t122 86t177 35q76 0 135.5 -23.5t77.5 -41.5l142 53l-193 -1440v-129h-184l180 1323q0 55 -42 92t-107 37q-109 0 -185 -81t-108 -320 q-2 -4 -2 -15l-4 -32h229l-19 -130h-229l-137 -1001q-47 -344 -338 -344q-135 0 -229 63z" />
<glyph unicode="&#xfb03;" horiz-adv-x="1488" d="M1106 0l119 887v117h180l-119 -885v-119h-180zM1249 1335q0 51 41 94.5t94 43.5q47 0 76 -31t29 -74q0 -53 -40 -94t-95 -41q-47 0 -76 29.5t-29 72.5zM195 -406l81 117q43 -31 70 -41t74 -10q152 0 182 234l133 980h-145l16 130h148q14 123 39.5 216t75 179t133 132 t200.5 46q135 0 246 -80l-80 -121q-68 72 -154 72q-78 0 -135 -38t-89 -107.5t-48 -139t-27 -159.5h230l-17 -130h-229l-137 -999q-47 -346 -338 -346q-133 0 -229 65zM-317 -406l81 117q43 -31 70 -41t74 -10q152 0 182 234l133 980h-145l16 130h148q14 123 39.5 216 t75 179t133 132t200.5 46q135 0 246 -80l-80 -121q-68 72 -154 72q-78 0 -135 -38t-89 -107.5t-48 -139t-27 -159.5h230l-17 -130h-229l-137 -999q-47 -346 -338 -346q-133 0 -229 65z" />
<glyph unicode="&#xfb04;" horiz-adv-x="1488" d="M1104 0l196 1448v117h181l-195 -1446v-119h-182zM195 -406l81 117q43 -31 70 -41t74 -10q152 0 182 234l133 980h-145l16 130h148q14 123 39.5 216t75 179t133 132t200.5 46q135 0 246 -80l-80 -121q-68 72 -154 72q-78 0 -135 -38t-89 -107.5t-48 -139t-27 -159.5h230 l-17 -130h-229l-137 -999q-47 -346 -338 -346q-133 0 -229 65zM-317 -406l81 117q43 -31 70 -41t74 -10q152 0 182 234l133 980h-145l16 130h148q14 123 39.5 216t75 179t133 132t200.5 46q135 0 246 -80l-80 -121q-68 72 -154 72q-78 0 -135 -38t-89 -107.5t-48 -139 t-27 -159.5h230l-17 -130h-229l-137 -999q-47 -346 -338 -346q-133 0 -229 65z" />
</font>
</defs>
</svg>
